<svg width="161" height="28" viewBox="0 0 161 28" fill="none" xmlns="http://www.w3.org/2000/svg">
<path d="M5.55859 17.9824V27H0.285156V1.40625H10.2695C12.1914 1.40625 13.8789 1.75781 15.332 2.46094C16.7969 3.16406 17.9219 4.16602 18.707 5.4668C19.4922 6.75586 19.8848 8.22656 19.8848 9.87891C19.8848 12.3867 19.0234 14.3672 17.3008 15.8203C15.5898 17.2617 13.2168 17.9824 10.1816 17.9824H5.55859ZM5.55859 13.7109H10.2695C11.6641 13.7109 12.7246 13.3828 13.4512 12.7266C14.1895 12.0703 14.5586 11.1328 14.5586 9.91406C14.5586 8.66016 14.1895 7.64648 13.4512 6.87305C12.7129 6.09961 11.6934 5.70117 10.3926 5.67773H5.55859V13.7109ZM102.484 17.3145C102.484 15.4277 102.848 13.7461 103.574 12.2695C104.301 10.793 105.344 9.65039 106.703 8.8418C108.074 8.0332 109.662 7.62891 111.467 7.62891C114.033 7.62891 116.125 8.41406 117.742 9.98438C119.371 11.5547 120.279 13.6875 120.467 16.3828L120.502 17.6836C120.502 20.6016 119.688 22.9453 118.059 24.7148C116.43 26.4727 114.244 27.3516 111.502 27.3516C108.76 27.3516 106.568 26.4727 104.928 24.7148C103.299 22.957 102.484 20.5664 102.484 17.543V17.3145ZM107.564 17.6836C107.564 19.4883 107.904 20.8711 108.584 21.832C109.264 22.7812 110.236 23.2559 111.502 23.2559C112.732 23.2559 113.693 22.7871 114.385 21.8496C115.076 20.9004 115.422 19.3887 115.422 17.3145C115.422 15.5449 115.076 14.1738 114.385 13.2012C113.693 12.2285 112.721 11.7422 111.467 11.7422C110.225 11.7422 109.264 12.2285 108.584 13.2012C107.904 14.1621 107.564 15.6562 107.564 17.6836Z" fill="#33BBFF"/>
<path d="M31.9434 27.3516C29.1543 27.3516 26.8809 26.4961 25.123 24.7852C23.377 23.0742 22.5039 20.7949 22.5039 17.9473V17.4551C22.5039 15.5449 22.873 13.8398 23.6113 12.3398C24.3496 10.8281 25.3926 9.66797 26.7402 8.85938C28.0996 8.03906 29.6465 7.62891 31.3809 7.62891C33.9824 7.62891 36.0273 8.44922 37.5156 10.0898C39.0156 11.7305 39.7656 14.0566 39.7656 17.0684V19.1426H27.6543C27.8184 20.3848 28.3105 21.3809 29.1309 22.1309C29.9629 22.8809 31.0117 23.2559 32.2773 23.2559C34.2344 23.2559 35.7637 22.5469 36.8652 21.1289L39.3613 23.9238C38.5996 25.002 37.5684 25.8457 36.2676 26.4551C34.9668 27.0527 33.5254 27.3516 31.9434 27.3516ZM31.3633 11.7422C30.3555 11.7422 29.5352 12.082 28.9023 12.7617C28.2812 13.4414 27.8828 14.4141 27.707 15.6797H34.7734V15.2754C34.75 14.1504 34.4453 13.2832 33.8594 12.6738C33.2734 12.0527 32.4414 11.7422 31.3633 11.7422ZM52.9668 21.7441C52.9668 21.123 52.6562 20.6367 52.0352 20.2852C51.4258 19.9219 50.4414 19.5996 49.082 19.3184C44.5586 18.3691 42.2969 16.4473 42.2969 13.5527C42.2969 11.8652 42.9941 10.459 44.3887 9.33398C45.7949 8.19727 47.6289 7.62891 49.8906 7.62891C52.3047 7.62891 54.2324 8.19727 55.6738 9.33398C57.127 10.4707 57.8535 11.9473 57.8535 13.7637H52.7734C52.7734 13.0371 52.5391 12.4395 52.0703 11.9707C51.6016 11.4902 50.8691 11.25 49.873 11.25C49.0176 11.25 48.3555 11.4434 47.8867 11.8301C47.418 12.2168 47.1836 12.709 47.1836 13.3066C47.1836 13.8691 47.4473 14.3262 47.9746 14.6777C48.5137 15.0176 49.416 15.3164 50.6816 15.5742C51.9473 15.8203 53.0137 16.1016 53.8809 16.418C56.5645 17.4023 57.9062 19.1074 57.9062 21.5332C57.9062 23.2676 57.1621 24.6738 55.6738 25.752C54.1855 26.8184 52.2637 27.3516 49.9082 27.3516C48.3145 27.3516 46.8965 27.0703 45.6543 26.5078C44.4238 25.9336 43.457 25.1543 42.7539 24.1699C42.0508 23.1738 41.6992 22.1016 41.6992 20.9531H46.5156C46.5625 21.8555 46.8965 22.5469 47.5176 23.0273C48.1387 23.5078 48.9707 23.748 50.0137 23.748C50.9863 23.748 51.7188 23.5664 52.2109 23.2031C52.7148 22.8281 52.9668 22.3418 52.9668 21.7441ZM71.4941 21.7441C71.4941 21.123 71.1836 20.6367 70.5625 20.2852C69.9531 19.9219 68.9688 19.5996 67.6094 19.3184C63.0859 18.3691 60.8242 16.4473 60.8242 13.5527C60.8242 11.8652 61.5215 10.459 62.916 9.33398C64.3223 8.19727 66.1562 7.62891 68.418 7.62891C70.832 7.62891 72.7598 8.19727 74.2012 9.33398C75.6543 10.4707 76.3809 11.9473 76.3809 13.7637H71.3008C71.3008 13.0371 71.0664 12.4395 70.5977 11.9707C70.1289 11.4902 69.3965 11.25 68.4004 11.25C67.5449 11.25 66.8828 11.4434 66.4141 11.8301C65.9453 12.2168 65.7109 12.709 65.7109 13.3066C65.7109 13.8691 65.9746 14.3262 66.502 14.6777C67.041 15.0176 67.9434 15.3164 69.209 15.5742C70.4746 15.8203 71.541 16.1016 72.4082 16.418C75.0918 17.4023 76.4336 19.1074 76.4336 21.5332C76.4336 23.2676 75.6895 24.6738 74.2012 25.752C72.7129 26.8184 70.791 27.3516 68.4355 27.3516C66.8418 27.3516 65.4238 27.0703 64.1816 26.5078C62.9512 25.9336 61.9844 25.1543 61.2812 24.1699C60.5781 23.1738 60.2266 22.1016 60.2266 20.9531H65.043C65.0898 21.8555 65.4238 22.5469 66.0449 23.0273C66.666 23.5078 67.498 23.748 68.541 23.748C69.5137 23.748 70.2461 23.5664 70.7383 23.2031C71.2422 22.8281 71.4941 22.3418 71.4941 21.7441ZM100.146 18.4746C99.9473 21.2285 98.9277 23.3965 97.0879 24.9785C95.2598 26.5605 92.8457 27.3516 89.8457 27.3516C86.5645 27.3516 83.9805 26.25 82.0938 24.0469C80.2188 21.832 79.2812 18.7969 79.2812 14.9414V13.377C79.2812 10.916 79.7148 8.74805 80.582 6.87305C81.4492 4.99805 82.6855 3.5625 84.291 2.56641C85.9082 1.55859 87.7832 1.05469 89.916 1.05469C92.8691 1.05469 95.248 1.8457 97.0527 3.42773C98.8574 5.00977 99.9004 7.23047 100.182 10.0898H94.9082C94.7793 8.4375 94.3164 7.24219 93.5195 6.50391C92.7344 5.75391 91.5332 5.37891 89.916 5.37891C88.1582 5.37891 86.8398 6.01172 85.9609 7.27734C85.0938 8.53125 84.6484 10.4824 84.625 13.1309V15.0645C84.625 17.8301 85.041 19.8516 85.873 21.1289C86.7168 22.4062 88.041 23.0449 89.8457 23.0449C91.4746 23.0449 92.6875 22.6758 93.4844 21.9375C94.293 21.1875 94.7559 20.0332 94.873 18.4746H100.146ZM122.84 17.3496C122.84 14.3848 123.502 12.0234 124.826 10.2656C126.162 8.50781 127.984 7.62891 130.293 7.62891C132.145 7.62891 133.674 8.32031 134.881 9.70312V0H139.979V27H135.391L135.145 24.9785C133.879 26.5605 132.25 27.3516 130.258 27.3516C128.02 27.3516 126.221 26.4727 124.861 24.7148C123.514 22.9453 122.84 20.4902 122.84 17.3496ZM127.92 17.7188C127.92 19.5 128.23 20.8652 128.852 21.8145C129.473 22.7637 130.375 23.2383 131.559 23.2383C133.129 23.2383 134.236 22.5762 134.881 21.252V13.7461C134.248 12.4219 133.152 11.7598 131.594 11.7598C129.145 11.7598 127.92 13.7461 127.92 17.7188ZM152.67 27.3516C149.881 27.3516 147.607 26.4961 145.85 24.7852C144.104 23.0742 143.23 20.7949 143.23 17.9473V17.4551C143.23 15.5449 143.6 13.8398 144.338 12.3398C145.076 10.8281 146.119 9.66797 147.467 8.85938C148.826 8.03906 150.373 7.62891 152.107 7.62891C154.709 7.62891 156.754 8.44922 158.242 10.0898C159.742 11.7305 160.492 14.0566 160.492 17.0684V19.1426H148.381C148.545 20.3848 149.037 21.3809 149.857 22.1309C150.689 22.8809 151.738 23.2559 153.004 23.2559C154.961 23.2559 156.49 22.5469 157.592 21.1289L160.088 23.9238C159.326 25.002 158.295 25.8457 156.994 26.4551C155.693 27.0527 154.252 27.3516 152.67 27.3516ZM152.09 11.7422C151.082 11.7422 150.262 12.082 149.629 12.7617C149.008 13.4414 148.609 14.4141 148.434 15.6797H155.5V15.2754C155.477 14.1504 155.172 13.2832 154.586 12.6738C154 12.0527 153.168 11.7422 152.09 11.7422Z" fill="white"/>
</svg>
