<svg width="12" height="12" viewBox="0 0 12 12" fill="none" xmlns="http://www.w3.org/2000/svg">
<path fill-rule="evenodd" clip-rule="evenodd" d="M5.85021 1.69617C5.97428 1.5303 6.18938 1.46057 6.38717 1.52211C6.58496 1.58364 6.72253 1.76309 6.73061 1.97007V5.15027H9.57915C9.75773 5.15297 9.92063 5.25275 10.0042 5.41061C10.0877 5.56845 10.0785 5.75927 9.98025 5.90839L6.45866 11.0538C6.33459 11.2197 6.11949 11.2895 5.9217 11.2279C5.72392 11.1664 5.58634 10.9869 5.57826 10.7799V7.59975H2.73164C2.55308 7.59705 2.39019 7.49725 2.30669 7.3394C2.22317 7.18155 2.23233 6.99074 2.33057 6.84161L5.85021 1.69617Z" fill="#00E7F9"/>
</svg>
