<svg width="20" height="20" viewBox="0 0 20 20" fill="none" xmlns="http://www.w3.org/2000/svg">
<g clip-path="url(#clip0)">
<path fill-rule="evenodd" clip-rule="evenodd" d="M15.821 14.1211C15.58 14.8033 14.622 15.3677 13.858 15.5327C13.335 15.6437 12.653 15.7316 10.355 14.7793C7.774 13.71 4.19 9.90097 4.19 7.36621C4.19 6.07582 4.934 4.57324 6.235 4.57324C6.861 4.57324 6.999 4.58545 7.205 5.07959C7.446 5.66177 8.034 7.09612 8.104 7.24316C8.393 7.84634 7.80999 8.19945 7.38699 8.72461C7.25199 8.88265 7.099 9.05358 7.27 9.34766C7.44 9.63575 8.028 10.5941 8.892 11.3633C10.008 12.3576 10.913 12.675 11.237 12.8101C11.478 12.9101 11.766 12.8868 11.942 12.6987C12.165 12.4577 12.442 12.0577 12.724 11.6636C12.923 11.3815 13.176 11.3463 13.441 11.4463C13.62 11.5083 15.895 12.5648 15.991 12.7339C16.062 12.8569 16.062 13.4389 15.821 14.1211ZM10.002 0H9.99699C4.48399 0 0 4.48535 0 10C0 12.1867 0.705007 14.2153 1.90401 15.8608L0.658005 19.5767L4.50101 18.3486C6.08201 19.395 7.969 20 10.002 20C15.515 20 20 15.5146 20 10C20 4.48535 15.515 0 10.002 0Z" fill="white"/>
</g>
<defs>
<clipPath id="clip0">
<rect width="20" height="20" fill="white"/>
</clipPath>
</defs>
</svg>
