<svg width="24" height="18" viewBox="0 0 24 18" fill="none" xmlns="http://www.w3.org/2000/svg">
<g clip-path="url(#clip0)">
<path fill-rule="evenodd" clip-rule="evenodd" d="M9.58613 12.325V5.10981C11.9768 6.31508 13.8283 7.47939 16.0181 8.73467C14.212 9.80787 11.9768 11.012 9.58613 12.325ZM22.9092 1.52137C22.4968 0.939245 21.794 0.486114 21.0457 0.336097C18.8463 -0.111396 5.12518 -0.112669 2.92698 0.336097C2.32693 0.45662 1.7926 0.747941 1.3336 1.20056C-0.600435 3.12386 0.00559942 13.4379 0.471777 15.1086C0.667809 15.8318 0.921228 16.3533 1.24038 16.6957C1.65157 17.1483 2.21456 17.4599 2.86123 17.5997C4.67215 18.001 14.0016 18.2254 21.0074 17.66C21.6529 17.5394 22.2243 17.2178 22.6749 16.7459C24.4631 14.8303 24.3412 3.93703 22.9092 1.52137Z" fill="white"/>
</g>
<defs>
<clipPath id="clip0">
<rect width="24" height="18" fill="white"/>
</clipPath>
</defs>
</svg>
